<svg id="Hex" xmlns="http://www.w3.org/2000/svg" viewBox="0 0 256 221.7"><defs><style>.cls-1{fill:#12c627;}.cls-2{fill:#03f;}.cls-3{fill:#dc0000;}.cls-4{fill:#4fdb5f;}</style></defs><polygon id="Front_Right" data-name="Front Right" class="cls-1" points="11 110.85 69.5 212.18 64 221.7 0 110.85 11 110.85"/><polygon id="Front_Left" data-name="Front Left" class="cls-1" points="245 110.85 186.5 212.18 192 221.7 256 110.85 245 110.85"/><polygon id="Back_Right" data-name="Back Right" class="cls-2" points="69.5 9.53 11 110.85 0 110.85 64 0 69.5 9.53"/><polygon id="Back_Left" data-name="Back Left" class="cls-2" points="186.5 9.53 245 110.85 256 110.85 192 0 186.5 9.53"/><polygon id="Back" class="cls-3" points="186.5 9.53 69.5 9.53 64 0 192 0 186.5 9.53"/><polygon id="Front" class="cls-4" points="69.5 212.18 186.5 212.18 192 221.7 64 221.7 69.5 212.18"/></svg>